# xmcd CD database file
#
# Track frame offsets:
#	150
#	23367
#	38975
#	62122
#	89025
#
# Disc length: 4440 seconds
#
# Revision: 1
# Processed by: cddbd v1.5PL3 Copyright (c) Steve Scherf et al.
# Submitted via: CDex 1.50Beta5
#
DISCID=39115605
DTITLE=Hirosawa Tadashi - 奇跡
DYEAR=2003
DGENRE=Jazz
TTITLE0=奇跡
TTITLE1=秋風
TTITLE2=奇跡 (Instrumental)
TTITLE3=秋風 (Instrumental)
TTITLE4=data
EXTD=YEAR: 2003
EXTT0=
EXTT1=
EXTT2=
EXTT3=
EXTT4=
PLAYORDER=
